<svg xmlns="http://www.w3.org/2000/svg" width="242.66" height="228.06" viewBox="0 0 242.66 228.06">
  <defs>
    <style>
      .cls-1 {
        isolation: isolate;
      }

      .cls-2 {
        fill: #383838;
        opacity: 0.5;
        mix-blend-mode: multiply;
      }

      .cls-3 {
        fill: #f3f5ff;
      }

      .cls-4 {
        fill: #a6cdd4;
      }

      .cls-5 {
        fill: #ffcf4a;
      }

      .cls-6 {
        fill: #7f73b4;
      }

      .cls-7 {
        fill: #60af7e;
      }

      .cls-8 {
        fill: #f2c766;
      }

      .cls-9 {
        fill: #df3d00;
      }
    </style>
  </defs>
  <title>sticker-2</title>
  <g class="cls-1">
    <g id="Layer_2" data-name="Layer 2">
      <g id="Graphic_elements" data-name="Graphic elements">
        <g>
          <path class="cls-2" d="M242.4,92.81c-1.66-13.36-9.91-26.5-22.62-36.05a61.91,61.91,0,0,0-36.91-12.47l-1.48,0a63.35,63.35,0,0,0-8.09.74,12.43,12.43,0,0,0-2.3.4l-.13,0a62.28,62.28,0,0,0-10.43,3,45.5,45.5,0,0,0-27.8-41.67A41.32,41.32,0,0,0,117,3.78a40.7,40.7,0,0,0-24.22,7.89c-10,7.33-17.44,19-20.43,32a79.81,79.81,0,0,0-1.19,26.8,76.39,76.39,0,0,0-19.1-2.77c-1.09,0-2.17,0-3.22.1a48.88,48.88,0,0,0-11.31,1.89,54.16,54.16,0,0,0-5.45,1.52C18.51,75.8,8.36,86,5,98.58a32.81,32.81,0,0,0-1.12,9.82,3.91,3.91,0,0,0,0,.49,23.64,23.64,0,0,0,1.11,8.45,27.67,27.67,0,0,0,3.6,7.5,31.52,31.52,0,0,0,5.24,6,32.79,32.79,0,0,0,7.16,4.87l.68.31a49,49,0,0,0,13.46,5.5,56.69,56.69,0,0,0-9.54,9.1,54.76,54.76,0,0,0-11.9,25.24,16.91,16.91,0,0,0-1,3.75l-.1.58a31.63,31.63,0,0,0-.45,4.07,23.46,23.46,0,0,0,.39,4.24c0,.25.08.49.11.72a28.72,28.72,0,0,0,1.31,5.46c0,.1.07.2.1.3a40.16,40.16,0,0,0,4.65,11.58c-.14,1.32-.24,2.65-.31,4a10.85,10.85,0,0,0,3.07,7.92A11,11,0,0,0,29.34,222h.44a10.44,10.44,0,0,0,1.6-.18,10.56,10.56,0,0,0,6.34,2.12h.39l1,.36c.47.17.95.32,1.44.47A9.91,9.91,0,0,0,45,227.07a11.19,11.19,0,0,0,2.52.28,12.32,12.32,0,0,0,1.83-.14,10.93,10.93,0,0,0,1.73.56,12,12,0,0,0,2.61.29,11.85,11.85,0,0,0,6.86-2.13c1.06-.16,2.15-.34,3.29-.56a56.92,56.92,0,0,0,11.62-3.88,50.28,50.28,0,0,0,8.59-4.71,70.29,70.29,0,0,0,12.79-11.17,64.32,64.32,0,0,0,7.38-8.64,33.68,33.68,0,0,0,8.92,14.31,37.9,37.9,0,0,0,7.15,5.23,10.64,10.64,0,0,0,4,2.07,86.87,86.87,0,0,0,10.1,3.91,68.65,68.65,0,0,0,21.36,3.72h0c1,0,2,0,3-.09a46.43,46.43,0,0,0,20.26-5.9,50.32,50.32,0,0,0,15.73-13.83,54.18,54.18,0,0,0,10.4-38.84,65.29,65.29,0,0,0-12.33-30.64l0-.08c10.31-.68,20.72-2.55,30-8a43,43,0,0,0,14.89-14.13A33.71,33.71,0,0,0,242.4,92.81Z"/>
          <path class="cls-3" d="M238.61,89C237,75.67,228.71,62.53,216,53a61.91,61.91,0,0,0-36.91-12.47l-1.48,0a63.35,63.35,0,0,0-8.09.74,11.65,11.65,0,0,0-2.3.4l-.13,0a64.63,64.63,0,0,0-10.44,3A45.44,45.44,0,0,0,128.86,3a41.31,41.31,0,0,0-15.6-3A40.68,40.68,0,0,0,89,7.89c-10,7.32-17.44,19-20.43,32a79.61,79.61,0,0,0-1.2,26.81,76.33,76.33,0,0,0-19.1-2.77c-1.08,0-2.16,0-3.21.1a48.88,48.88,0,0,0-11.31,1.89,52.52,52.52,0,0,0-5.46,1.52C14.72,72,4.58,82.26,1.19,94.8a32.82,32.82,0,0,0-1.13,9.82l0,.48a23.9,23.9,0,0,0,1.12,8.46,27.75,27.75,0,0,0,3.59,7.49,32,32,0,0,0,5.24,6,33.11,33.11,0,0,0,7.17,4.86l.67.32a49,49,0,0,0,13.46,5.49,57.43,57.43,0,0,0-9.53,9.1,54.7,54.7,0,0,0-11.9,25.24,17.19,17.19,0,0,0-1,3.76l-.09.58a31.67,31.67,0,0,0-.45,4.06,21.82,21.82,0,0,0,.39,4.25c0,.25.07.49.11.72a29.71,29.71,0,0,0,1.3,5.46c0,.1.08.2.11.3a40.42,40.42,0,0,0,4.64,11.58c-.13,1.32-.23,2.65-.3,4a10.86,10.86,0,0,0,3.07,7.93,11,11,0,0,0,7.89,3.51H26a14,14,0,0,0,1.6-.18,10.53,10.53,0,0,0,6.34,2.12h.38l1,.36c.47.17,1,.32,1.45.47a10,10,0,0,0,4.48,2.33,11.38,11.38,0,0,0,4.35.13,9.2,9.2,0,0,0,1.73.56,11.42,11.42,0,0,0,2.61.3,11.82,11.82,0,0,0,6.85-2.13c1.06-.16,2.16-.34,3.29-.56a57.11,57.11,0,0,0,11.62-3.88,50,50,0,0,0,8.6-4.71,71.36,71.36,0,0,0,12.79-11.17,65.59,65.59,0,0,0,7.38-8.64,33.49,33.49,0,0,0,8.92,14.31,38.34,38.34,0,0,0,7.15,5.23,10.64,10.64,0,0,0,4,2.07,88.71,88.71,0,0,0,10.1,3.91A68.92,68.92,0,0,0,152,222.42h0c1,0,2,0,3-.08a46.61,46.61,0,0,0,20.26-5.9,50.44,50.44,0,0,0,15.73-13.83,54.24,54.24,0,0,0,10.39-38.84A65.27,65.27,0,0,0,189,133.13l0-.08c10.31-.68,20.72-2.56,30-8a43,43,0,0,0,14.9-14.13A33.67,33.67,0,0,0,238.61,89Z"/>
          <g>
            <path class="cls-4" d="M233.61,89.65C232,76.49,223.36,64.82,213,57a56.79,56.79,0,0,0-35.23-11.44,57.72,57.72,0,0,0-7.66.72,7,7,0,0,0-1.52.24l-.25.07a58.81,58.81,0,0,0-17.68,6.51,37.38,37.38,0,0,0,0-16.9A40,40,0,0,0,127,7.72,36.17,36.17,0,0,0,92,12c-9.46,6.93-15.88,17.68-18.5,29-2.66,11.57-1.84,23.53.47,35.12-.72-.54-1.48-1-2.25-1.5a8.87,8.87,0,0,0-4.32-2.73c-7.12-1.9-14.6-3.32-22-2.85a44.82,44.82,0,0,0-10.33,1.73A50.64,50.64,0,0,0,30,72.19C18.74,76,9.21,84.44,6.06,96.12a27.33,27.33,0,0,0-.94,8.58c0,.22,0,.45,0,.68A18.93,18.93,0,0,0,6,112a22.35,22.35,0,0,0,2.91,6.12,26.75,26.75,0,0,0,4.4,5.09,27.32,27.32,0,0,0,6,4.14l.89.41c7.91,4.86,17.2,6.56,26.46,7.13A49.58,49.58,0,0,0,38.42,139a33.3,33.3,0,0,0-3.65,2.46,52.19,52.19,0,0,0-9.14,8.62,49.69,49.69,0,0,0-10.91,23.47,10.82,10.82,0,0,0-.84,3.08,31.81,31.81,0,0,0-.49,4,35.63,35.63,0,0,0,1.52,8.62l.2.54a34,34,0,0,0,5.86,13,23.66,23.66,0,0,0,4.9,6.43A31.58,31.58,0,0,0,37,215.74a38.75,38.75,0,0,0,10.78,1.9,47.81,47.81,0,0,0,11.32-1,52.24,52.24,0,0,0,10.6-3.56,46,46,0,0,0,7.73-4.24,65.65,65.65,0,0,0,12-10.5,57.62,57.62,0,0,0,13.25-19.54,11.94,11.94,0,0,0,.63,4.23c1.07,7.8,3.61,15.27,9.51,20.79a34.34,34.34,0,0,0,6.65,4.78,5.53,5.53,0,0,0,2.73,1.42,82.92,82.92,0,0,0,10,3.9,61.76,61.76,0,0,0,22.46,3.39c13-.73,24.45-7.41,32.25-17.74a48.92,48.92,0,0,0,9.41-35.2,60.37,60.37,0,0,0-11.72-28.71,49.17,49.17,0,0,0-3.78-7.32h0c12.28-.25,24.89-1.35,35.65-7.63a37.88,37.88,0,0,0,13.15-12.45A28.45,28.45,0,0,0,233.61,89.65Z"/>
            <path class="cls-3" d="M103.23,114.11A9.11,9.11,0,0,0,93,110.72a15.92,15.92,0,0,0-12.13-10.13,16.21,16.21,0,0,0-13.73,4.62,11.52,11.52,0,0,0-11-6c-5.43.56-9.47,4.73-11.63,9.53-.31.06-.62.13-.92.22a14.82,14.82,0,0,0-7,1.83c-3.15,1.68-6.55,5.1-5.21,9,1.14,3.29,4.71,5.42,8,6a14.53,14.53,0,0,0,4.21.13l.09,0a10.63,10.63,0,0,0,4,.15c.17,0,.33,0,.49-.09a11.51,11.51,0,0,0,7.55,6.61,11.78,11.78,0,0,0,11.59-3.73,37.59,37.59,0,0,0,24.45,2.19c3.83-1,8-2.53,10.67-5.64A9.27,9.27,0,0,0,103.23,114.11Z"/>
            <g>
              <path class="cls-5" d="M163.25,91.83a16.71,16.71,0,0,0-4.29-11,19.42,19.42,0,0,0-9-5.48,19.07,19.07,0,0,0-10.8.11C126.08,77.83,115,90,116.94,103.92a18.48,18.48,0,0,0,5.28,10.59,16.28,16.28,0,0,0,7.39,5.55,16,16,0,0,0,10.43.22,24.6,24.6,0,0,0,13-6.07C159.12,108.78,163.44,100.09,163.25,91.83Zm-42.1,5.38c-.07.21-.13.41-.19.62a10.46,10.46,0,0,0-.24,1.08c0-.41.08-.82.14-1.23.12-.77.28-1.52.47-2.27Q121.2,96.31,121.15,97.21Z"/>
              <path class="cls-5" d="M108.42,89.71c-1.16-1.63-3.8-2-5.67-2.5a21.05,21.05,0,0,0-5.86-1c-.85,0-1.5,1.18-.75,1.82a20.21,20.21,0,0,0,5.11,2.77c.9.39,1.8.75,2.72,1.11,1.11.43,2.13,1,3.33.6A1.89,1.89,0,0,0,108.42,89.71Z"/>
              <path class="cls-5" d="M179,105.73a33.14,33.14,0,0,0-5.73-.45l-2.79-.23a3.46,3.46,0,0,0-2.46.33,1,1,0,0,0-.34,1.27c.83,1.42,3.48,1.61,4.94,1.94a22.25,22.25,0,0,0,5.87.92C180.6,109.37,181.24,106.29,179,105.73Z"/>
              <path class="cls-5" d="M168.87,60a1.6,1.6,0,0,0-1.51-1.15c-1.42,0-2,1.06-2.77,2.06l-2.21,2.94-2.08,2.78a11.4,11.4,0,0,0-1.88,2.94c-.3.82.72,1.45,1.4,1.07a11.3,11.3,0,0,0,2.48-2.21l2.57-2.66,2.43-2.51C168.27,62.25,169.14,61.49,168.87,60Z"/>
              <path class="cls-5" d="M126,125.52c-2,2.16-3.23,4.93-5.3,7a2,2,0,0,0-.3,2.38,2.22,2.22,0,0,0,1.17.9,2,2,0,0,0,2.21-.9c1.51-2.6,3.6-5.3,4.12-8.32C128.1,125.59,126.87,124.61,126,125.52Z"/>
              <path class="cls-5" d="M107.26,111.92a3.79,3.79,0,0,0-2.3.75,16.63,16.63,0,0,1-2,.91l-4.28,1.72c-1.24.5-.79,2.44.57,2.06l4.61-1.28c1.5-.41,3.38-.34,4.55-1.44A1.61,1.61,0,0,0,107.26,111.92Z"/>
              <path class="cls-5" d="M181.38,81.85a20.67,20.67,0,0,0-5.57,1.33,17.16,17.16,0,0,0-5.38,2.54c-1.46,1.15.13,3.58,1.78,3a35.78,35.78,0,0,0,4.94-2.41c1.57-.79,3.34-1.34,4.83-2.26A1.22,1.22,0,0,0,181.38,81.85Z"/>
              <path class="cls-5" d="M127.19,68.25c-.45-.64-.88-1.29-1.31-2-.89-1.36-1.74-2.75-2.58-4.15-.49-.82-1.29-2.13-2.46-1.44a1.11,1.11,0,0,0,.23,1.95c.1.21.19.42.28.63.22.47.44.95.67,1.42.41.82.85,1.62,1.3,2.41s.91,1.58,1.38,2.36.94,1.74,2,2a1.17,1.17,0,0,0,1.46-1.11C128.21,69.5,127.69,69,127.19,68.25Z"/>
              <path class="cls-5" d="M157.54,129.19a15.49,15.49,0,0,0-2.1-3.76c-.65-1.08-1.3-2.59-2.42-3.24a1.07,1.07,0,0,0-1.57.63c-.19,1.4.58,2.8,1.17,4s1.18,2.93,2.24,3.9A1.62,1.62,0,0,0,157.54,129.19Z"/>
              <path class="cls-5" d="M117,75.12c-1.13-1-2.84-1-4.23-1.48A32.09,32.09,0,0,1,108.55,72a1,1,0,0,0-1.06,1.81,22.16,22.16,0,0,0,4.11,2.51c1.39.64,3.16,1.62,4.71,1.24A1.45,1.45,0,0,0,117,75.12Z"/>
              <path class="cls-5" d="M144.46,63c-.05-.73-.11-1.45-.16-2.17a18.63,18.63,0,0,0-.48-4.29.56.56,0,0,0-1.07,0,18.63,18.63,0,0,0-.48,4.29c-.06.72-.11,1.44-.17,2.17a5.46,5.46,0,0,0,.05,2.28,1.19,1.19,0,0,0,2.27,0A5.47,5.47,0,0,0,144.46,63Z"/>
              <path class="cls-5" d="M140.42,129c-.1-1.18-.2-2.35-.32-3.53a1,1,0,0,0-1.92,0c-.12,1.18-.22,2.35-.32,3.53a31.93,31.93,0,0,0-.3,3.52,1.58,1.58,0,0,0,3.16,0A31.93,31.93,0,0,0,140.42,129Z"/>
              <path class="cls-5" d="M172.72,117.24c-.68-1.25-2.56-1.66-3.88-1.89a7.06,7.06,0,0,0-4,.24c-.7.3-.44,1.37.2,1.55a30.92,30.92,0,0,1,3.29.8c1.13.45,1.92,1.36,3.16,1.48A1.47,1.47,0,0,0,172.72,117.24Z"/>
              <path class="cls-5" d="M115.54,120.31a14.73,14.73,0,0,0-3.81,2.56,10.77,10.77,0,0,0-3.08,3,.71.71,0,0,0,.79,1,10.51,10.51,0,0,0,3.84-1.74,14.63,14.63,0,0,0,3.64-2.45C117.77,121.7,117,119.79,115.54,120.31Z"/>
              <path class="cls-5" d="M175.69,69.19a3,3,0,0,0-2.07,1c-.59.46-1.21.89-1.82,1.34L168,74.32c-1.14.84-.12,2.74,1.13,2l4.17-2.61c1.25-.78,3.07-1.44,3.59-2.89A1.26,1.26,0,0,0,175.69,69.19Z"/>
              <path class="cls-5" d="M106.8,97.88a18,18,0,0,0-5.38.08q-2.64.26-5.25.72c-1.21.21-.94,2.21.28,2.14,1.66-.11,3.31-.15,5-.12a34.61,34.61,0,0,0,5,.14,1.53,1.53,0,0,0,1.48-1.3A1.5,1.5,0,0,0,106.8,97.88Z"/>
              <path class="cls-5" d="M183.17,94.54c-.77-.82-1.57-.65-2.57-.44s-1.95.4-2.93.57c-1.9.34-3.8.66-5.7,1-1.29.23-1,2.43.31,2.31l5.77-.52c.92-.08,1.85-.13,2.78-.18s2,0,2.55-1.1A1.38,1.38,0,0,0,183.17,94.54Z"/>
            </g>
            <path class="cls-3" d="M209.85,76.17a10.88,10.88,0,0,0-5.19-3.61,28.3,28.3,0,0,0-6.83-2.11A11.37,11.37,0,0,0,188.6,73a.76.76,0,0,0,0-.11,10.49,10.49,0,0,0-11.9-5.39,11.17,11.17,0,0,0-7.73,7.76,17.73,17.73,0,0,0-15.52,4.65,14.75,14.75,0,0,0-4.72,9.72c-.19,4.43,3,7.4,7.05,8.46a24.22,24.22,0,0,0,12,0c1.88,5.07,7.81,8.1,13.22,7.24,6-1,9.93-6.08,11.64-11.63a13.43,13.43,0,0,0,17.06-5.76C211.54,84.41,212.21,79.57,209.85,76.17Z"/>
            <path class="cls-6" d="M130.57,166.16c-3.89-7.81-12.66-11.14-20.93-11.31-8.59-.17-16.89,2.65-24.57,6.26a77.17,77.17,0,0,0-32,28.12,63.67,63.67,0,0,0-9,22.16c-.6,3.2.89,6.89,4.36,7.68,3.16.72,6.92-.95,7.68-4.36a70.05,70.05,0,0,1,2.69-9.19c.23-.63.51-1.25.74-1.89l.08-.18c.17-.39.35-.78.53-1.17q1-2.16,2.19-4.24c.78-1.39,1.62-2.75,2.5-4.07.4-.62.82-1.23,1.25-1.83l.64-.89.32-.43a87.72,87.72,0,0,1,6.1-6.83q1.71-1.69,3.52-3.28c.61-.53,1.22-1.05,1.84-1.56l.87-.69.05,0,0,0a74.35,74.35,0,0,1,8.07-5.31q2.1-1.19,4.27-2.24c.73-.34,1.45-.68,2.19-1l.27-.12.9-.36a68,68,0,0,1,11-3.39l1.61-.3h.1l.54-.07a31.44,31.44,0,0,1,3.5-.18c.36,0,2.71-.13,2.89.17,0,0-1.25-.19-.16,0,.43.07.87.14,1.3.19l.08,0,.78.13a34,34,0,0,1,5.4,1.64l.22.09.42.2q.61.3,1.2.63a28.29,28.29,0,0,1,2.54,1.65,2.89,2.89,0,0,0,3.48-.45A3,3,0,0,0,130.57,166.16Z"/>
            <g>
              <path class="cls-7" d="M87.86,162.14c-.06.08.1.06.46-.24h0A2.1,2.1,0,0,1,87.86,162.14Z"/>
              <path class="cls-7" d="M134.64,163.7a41.32,41.32,0,0,0-20-13.33,46.85,46.85,0,0,0-25.22-.14c-17.17,4.62-30.95,17.19-39.77,32.31A111.8,111.8,0,0,0,38.33,211.3c-.73,2.91,1,6.37,4,7.07a5.84,5.84,0,0,0,7.06-4c1.07-4.1,2.31-8.15,3.78-12.12.35-1,.72-1.91,1.1-2.86l.37-.9.06-.14c.15-.33.29-.66.44-1,.86-1.92,1.76-3.83,2.74-5.7a81.2,81.2,0,0,1,6.53-10.55c.27-.36.53-.78.84-1.12-.2.24-.58.74,0,0,.13-.16.25-.32.38-.47.63-.78,1.27-1.54,1.94-2.29,1.28-1.44,2.62-2.84,4-4.17s2.84-2.62,4.34-3.84c.17-.13,1.32-1.06.68-.54s.57-.42.71-.52c.81-.59,1.63-1.16,2.46-1.7a53.91,53.91,0,0,1,5-2.91c.76-.4,1.53-.78,2.32-1.13.2-.1.5-.19.77-.3a.72.72,0,0,1,.3-.17l.15-.06,0,0,0,0,.58-.22a55.46,55.46,0,0,1,5.48-1.76c.89-.24,1.78-.46,2.69-.64a22.88,22.88,0,0,0,2.75-.47l.44,0q.67-.08,1.35-.12c1-.06,1.92-.1,2.89-.11,1.85,0,3.72.08,5.56.24.51,0,1,.09,1.52.15h.08l.61.1c1,.16,2,.36,3,.6,2,.46,3.93,1,5.84,1.69a28.91,28.91,0,0,1,5.25,2.29,28.28,28.28,0,0,1,4.85,3.49A2.41,2.41,0,0,0,134.64,163.7Z"/>
            </g>
            <path class="cls-8" d="M137.87,160.36a47,47,0,0,0-9.05-10.63,43.86,43.86,0,0,0-12.7-7.41c-9.32-3.72-20.26-3.9-29.95-1.58C66,145.56,49,160.15,38.79,177.89a87.32,87.32,0,0,0-7,15.66c-.84,2.47-1.56,5-2.15,7.53-.3,1.31-.57,2.62-.8,3.94-.44,2.48-1.09,5.07.35,7.36a5.68,5.68,0,0,0,8.78,1.13c2.19-2,2.14-5.6,2.73-8.34.48-2.22,1.06-4.43,1.74-6.6s1.44-4.32,2.3-6.43l.18-.45h0c.22-.49.43-1,.66-1.47.47-1,1-2.06,1.49-3.07a80.16,80.16,0,0,1,7.24-11.58l.1-.13.22-.28c.33-.42.67-.83,1-1.25.73-.88,1.47-1.74,2.23-2.58,1.53-1.69,3.13-3.32,4.79-4.87.79-.73,1.59-1.44,2.41-2.14l1.28-1.07.66-.53.14-.11,0,0c1.92-1.47,3.89-2.86,5.93-4.13a66.44,66.44,0,0,1,6.12-3.39c.58-.28,1.15-.55,1.73-.81.35-.16,1.83-.93.6-.27a23,23,0,0,1,3.36-1.27,63.48,63.48,0,0,1,6.89-1.94c1.09-.25,2.19-.47,3.3-.65l.7-.1c.62-.07,1.23-.14,1.85-.19a46.84,46.84,0,0,1,6.7-.1,17.42,17.42,0,0,1,3.06.28c-1.24-.31.23,0,.59.1.64.1,1.27.24,1.9.36a51.1,51.1,0,0,1,7.1,1.75q.82.27,1.62.57l1.14.46c1.11.49,2.19,1,3.29,1.55a32.46,32.46,0,0,1,11.06,8.48C135.86,165.38,139.3,162.66,137.87,160.36Z"/>
            <path class="cls-9" d="M136.51,156.16A33.74,33.74,0,0,0,126,146.06c-4.39-2.67-9.39-4.44-14.2-6.2a77.24,77.24,0,0,0-18.65-4.71A51.52,51.52,0,0,0,74.2,137c-19.32,5.39-35.86,20-45.31,37.48A76.27,76.27,0,0,0,19.64,207a6.17,6.17,0,0,0,6.13,6.13A6.28,6.28,0,0,0,31.91,207c.06-1.11.15-2.21.26-3.31.06-.48.15-1,.18-1.46-.13,2,0,0,.09-.54.37-2.24.83-4.46,1.4-6.65s1.2-4.24,1.95-6.31c.34-.94.71-1.87,1.08-2.8l.3-.68c.25-.55.51-1.11.77-1.66a75,75,0,0,1,6.74-11.39l.87-1.19.4-.51h0c.69-.86,1.4-1.71,2.12-2.54,1.45-1.67,3-3.27,4.57-4.8s3.34-3.06,5.11-4.48c.18-.14.86-.62.11-.09s.15-.11.27-.2l1.18-.87c.95-.68,1.91-1.33,2.89-2q2.85-1.84,5.87-3.4c.87-.44,1.76-.87,2.65-1.28.49-.23,1-.42,1.53-.67l.77-.31a70,70,0,0,1,7.88-2.63c1.27-.34,2.56-.62,3.86-.85.22,0,.46-.09.69-.13l.34,0c.77-.08,1.55-.16,2.32-.21a48.58,48.58,0,0,1,8.61.32l2.14.24H99l.18,0,1,.14c1.44.23,2.88.49,4.31.76,5.53,1.06,11.15,1.89,16.54,3.52a46.3,46.3,0,0,1,6.79,2.48,20.38,20.38,0,0,1,6.19,4.59A1.64,1.64,0,0,0,136.51,156.16Z"/>
            <path class="cls-3" d="M182.42,167.94c0-3.45-.46-7-2.8-9.71-2.49-2.86-6.56-3.5-10.13-3-3.33.48-6.27,2.08-9.28,3.48a12.2,12.2,0,0,0-1.69-7.15,4.36,4.36,0,0,0-1-1.46A4.64,4.64,0,0,0,155.7,149c-2.83-1.62-6.35-1.66-9.51-1.09-3.91.71-7.81,2.53-10.1,5.89-2.1,3.08-2.3,6.86-2.1,10.5a39.45,39.45,0,0,1-3.37-2.11c-1.88-1.11-4-1.77-6.13-.83a6.94,6.94,0,0,0-3.07,3,6.21,6.21,0,0,0-1.68,2.33,17.56,17.56,0,0,0-.77,5.15c-.11,1.54-.26,3.16.49,4.5a1.43,1.43,0,0,0,0,.22.76.76,0,0,0,.64.66,4.38,4.38,0,0,0,.69.55,6,6,0,0,0,2.64,2.33,11.87,11.87,0,0,0,8.86,2.22c.38,0,.76-.11,1.14-.18a35.21,35.21,0,0,0,7.12-1.41l3.25-.92a23.57,23.57,0,0,0,7.94,3.31h0a7.46,7.46,0,0,0,4,.56,15.57,15.57,0,0,0,3.55.57,12.76,12.76,0,0,0,10.54-4.63,11.84,11.84,0,0,0,2.07-3.74c1.38-.21,2.75-.47,4.12-.79,1.76-.41,3.77-.79,5.06-2.17S182.43,169.68,182.42,167.94Zm-54.19-3.28a3.24,3.24,0,0,0-.24-.31,7.17,7.17,0,0,1,.75.46Zm11.3-8.66c-.26.19-.52.39-.77.6l0,0a7.86,7.86,0,0,1,1.44-1.91C140,155.09,139.75,155.54,139.53,156Z"/>
          </g>
        </g>
      </g>
    </g>
  </g>
</svg>
