<svg xmlns="http://www.w3.org/2000/svg" width="258.09" height="265.72" viewBox="0 0 258.09 265.72">
  <defs>
    <style>
      .cls-1 {
        fill: #d89d4e;
      }

      .cls-2 {
        fill: #d89d4f;
      }

      .cls-3 {
        fill: #d99d50;
      }
    </style>
  </defs>
  <title>sticker-1</title>
  <g id="Layer_2" data-name="Layer 2">
    <g id="Graphic_elements" data-name="Graphic elements">
      <g>
        <path class="cls-1" d="M124,218.33c-3.37.14-6.73-.13-10.09-.31a68.49,68.49,0,0,1-8.66-1.28c-5.62-1.06-11.25-2.13-16.89-3.12a55.51,55.51,0,0,1-8-1.85,2.65,2.65,0,0,1-2-2.18,10.77,10.77,0,0,1-.12-3.2,3.1,3.1,0,0,1,2.82-3c1.52-.26,3-.74,4.54-.93.3,0,.59-.11.88-.13a79.47,79.47,0,0,1,12,.17c5.13.48,10.16,1.53,15.21,2.45a72.94,72.94,0,0,0,10.12,1.18c3.25.14,6.5.23,9.76.17a45.74,45.74,0,0,0,12.25-1.77A51.58,51.58,0,0,0,159,198.39a67.37,67.37,0,0,0,13-11.15c1.51-1.63,3-3.32,4.35-5a30.52,30.52,0,0,0,4.83-8.81,81.75,81.75,0,0,0,2.49-8.4c.89-3.55,1.81-7.09,2.7-10.64a45.06,45.06,0,0,0,1.27-11.21c0-1.7,0-3.4,0-5.1a46.63,46.63,0,0,0-2.53-15,131.75,131.75,0,0,0-6.22-15.18,45.58,45.58,0,0,0-8.81-12.44,168.59,168.59,0,0,0-13-11.89,60.35,60.35,0,0,0-15.75-9.42,26.83,26.83,0,0,0-9.38-2c-2,0-3.91-.14-5.87-.13a56,56,0,0,0-18,3.19,48.19,48.19,0,0,0-12.66,7,150.38,150.38,0,0,0-13.5,11.17A133.12,133.12,0,0,0,69.1,106.85a53.72,53.72,0,0,0-7.47,11.91,20.82,20.82,0,0,0-1.91,9c.06,2.78-.1,5.55.09,8.33a38.1,38.1,0,0,0,1.82,10.1,22.63,22.63,0,0,0,3.63,6.2,40.2,40.2,0,0,0,9.23,8.42,117.39,117.39,0,0,0,16.45,9.42,119.25,119.25,0,0,0,15.83,6.06,46.51,46.51,0,0,0,8,1.88,36.25,36.25,0,0,0,4.41.36c2.78,0,5.56,0,8.33,0a30.37,30.37,0,0,0,6.36-.89,47,47,0,0,0,11.77-4.17,35.21,35.21,0,0,0,10.8-8.91,24.41,24.41,0,0,0,2.63-4.36A41.75,41.75,0,0,0,162.86,150a25.19,25.19,0,0,0,.36-4.42,87.67,87.67,0,0,0-.2-9.31,30.2,30.2,0,0,0-1.89-8,64.47,64.47,0,0,0-4.65-10.18,32.07,32.07,0,0,0-12.83-12.42,63,63,0,0,0-14.78-5.31,33.3,33.3,0,0,0-7.36-.84c-1.59,0-3.19,0-4.78,0a4.71,4.71,0,0,0-2.9.9,39.45,39.45,0,0,0-13.39,16.66,19,19,0,0,0-1.34,6.69c-.06,1.22,0,2.45,0,3.67a36.15,36.15,0,0,0,2,12.07,15.5,15.5,0,0,0,5.12,7.5,12.15,12.15,0,0,0,6,2.29,14.94,14.94,0,0,0,7.79-1.18,13.83,13.83,0,0,0,3.55-2.24,3.71,3.71,0,0,0,1-2.53,22,22,0,0,0,0-6.63,14.22,14.22,0,0,0-1.9-4.59,27.76,27.76,0,0,0-6.33-7.37c-.7-.6-1.41-1.2-2.13-1.77a4.48,4.48,0,0,0-1.11-.74,4,4,0,0,1-2.55-4.21,4.25,4.25,0,0,1,4-3.93,9.55,9.55,0,0,1,5.79,2,32.6,32.6,0,0,1,14.11,21.8,46.08,46.08,0,0,1,.43,6.85,10.35,10.35,0,0,1-2.84,6.69,16.37,16.37,0,0,1-4.42,3.67c-2.21,1.2-4.41,2.42-6.72,3.43a29.94,29.94,0,0,1-8,2.09c-2.28.31-4.56.34-6.85.43a12.69,12.69,0,0,1-9.56-3.93A26.33,26.33,0,0,1,90.19,147a76.34,76.34,0,0,1-3.48-14,53.45,53.45,0,0,1-.3-9.3,34.65,34.65,0,0,1,.57-5.29,24.56,24.56,0,0,1,3.52-8.81,61.37,61.37,0,0,1,10-12.93,32.13,32.13,0,0,1,13.94-8.13,20,20,0,0,1,4.93-.65c2.07,0,4.14-.14,6.21-.2A50.07,50.07,0,0,1,145,91.33a41.69,41.69,0,0,1,9.77,4.93A41.23,41.23,0,0,1,167.51,111a90.18,90.18,0,0,1,6.35,16,44,44,0,0,1,1.83,10,110.68,110.68,0,0,1,.1,11.08,32.63,32.63,0,0,1-2.3,10,46.55,46.55,0,0,1-11.19,17.27,31.78,31.78,0,0,1-6.45,4.87A95.16,95.16,0,0,1,144.27,186a64.25,64.25,0,0,1-14.86,3.92,72.38,72.38,0,0,1-10.71.74c-2.14,0-4.29.05-6.43,0a44,44,0,0,1-12.3-2.15,136.74,136.74,0,0,1-15.54-5.9,106.59,106.59,0,0,1-20.25-11.9,41.16,41.16,0,0,1-11.4-13,34.75,34.75,0,0,1-3.47-9.79c-.31-1.52-.82-3-1.09-4.52a53.23,53.23,0,0,1-.83-8.16,82.45,82.45,0,0,1,.19-10.31,29.48,29.48,0,0,1,3.34-11.09,81.32,81.32,0,0,1,8.15-12.15A131.76,131.76,0,0,1,72.66,87.2,140.91,140.91,0,0,1,89.17,73.77a69.77,69.77,0,0,1,17.28-8.71,75.76,75.76,0,0,1,13-3.22c1.68-.25,3.38-.31,5.08-.41,3.13-.2,6.27-.25,9.41-.4,8.21-.39,15.61,2,22.52,6.24a88.25,88.25,0,0,1,12.18,9.06c2.85,2.53,5.6,5.17,8.36,7.79a52.63,52.63,0,0,1,11.39,15.19,152.76,152.76,0,0,1,8.21,20.36,67.89,67.89,0,0,1,2.46,10.22,36.53,36.53,0,0,1,.61,6.61c0,1.47.18,2.94.2,4.42a68.84,68.84,0,0,1-2.31,18.73c-1.06,4-2,7.95-3,11.92a42.51,42.51,0,0,1-8.24,16.32,123.61,123.61,0,0,1-10.23,11.23A58.08,58.08,0,0,1,162.2,209c-3.06,1.57-6.07,3.23-9.26,4.54a61.48,61.48,0,0,1-16.28,4.1A125.69,125.69,0,0,1,124,218.33Z"/>
        <path class="cls-2" d="M30.63,240.85a1.75,1.75,0,0,1,.59-1.16,17.29,17.29,0,0,0,2.58-3.32,6.75,6.75,0,0,1,1.05-1.28c1.64-1.6,3.3-3.19,4.91-4.82,3.92-4,7.92-7.86,12.12-11.53A11.53,11.53,0,0,0,53,217.65a8.46,8.46,0,0,1,3.49-2.24,2.19,2.19,0,0,1,2.84.8,22,22,0,0,1,1.53,2.31,2.11,2.11,0,0,1-.09,2.39,42.88,42.88,0,0,1-3.21,4.24,178.25,178.25,0,0,1-16.44,17.54,38.19,38.19,0,0,1-3.55,3.18,1.85,1.85,0,0,1-2.83-.14,18.8,18.8,0,0,0-1.58-1.38,13.85,13.85,0,0,1-2.37-2.76A1,1,0,0,1,30.63,240.85Z"/>
        <path class="cls-2" d="M139.1,250.45c0-3.11-.06-6.22,0-9.32a39.12,39.12,0,0,1,.22-5c.16-1,.22-1,1.22-1.26,1.92-.41,3.84-.75,5.78-1,1.12-.16,1.06-.08,1.55.9a11,11,0,0,1,.94,5.39c-.1,5.32.28,10.64.16,16,0,1.92-.12,3.83-.19,5.75a9.83,9.83,0,0,1-.13,1.09c-.25,1.63-.18,1.45-1.81,1.64a35.06,35.06,0,0,0-6.1,1.05c-.53.16-.61-.1-.75-.49a19.86,19.86,0,0,1-.95-7c0-2.59,0-5.18,0-7.76Z"/>
        <path class="cls-2" d="M225.17,140.5c0-.82.06-1.64,0-2.44a1.11,1.11,0,0,1,.86-1.32,56.33,56.33,0,0,1,7.09-2.17c3.47-.76,7-1.11,10.49-1.75a42.65,42.65,0,0,0,6.23-1.55,19.19,19.19,0,0,1,5.58-.73c.41,0,.72.08.84.53.42,1.62,1.15,3.12,1.68,4.7.31.91.22,1.22-.6,1.64-3.32,1.69-6.59,3.5-10.29,4.31-3.4.74-6.81,1.31-10.26,1.72-2.57.3-5.13.55-7.7.79a14.23,14.23,0,0,1-3,0c-.88-.11-.91-.18-.91-1.05S225.17,141.38,225.17,140.5Z"/>
        <path class="cls-2" d="M54.64,70.47c0,.53,0,.83-.25,1-1.21,1.08-1.75,2.64-2.73,3.89-.66.84-.89,1-1.83.45-2.09-1.12-4.21-2.17-6.26-3.35C41.35,71.25,39,70.19,36.79,69a88.6,88.6,0,0,1-9.14-5.67,27.24,27.24,0,0,1-2.71-2.45,1.93,1.93,0,0,1-.47-2.24,7.62,7.62,0,0,1,1.66-3c.6-.6,1.07-1.32,1.62-2a1.35,1.35,0,0,1,1.78-.45A10.28,10.28,0,0,1,31,54c4.3,2.74,8.63,5.44,12.89,8.25,3.36,2.23,6.63,4.6,9.94,6.89A1.5,1.5,0,0,1,54.64,70.47Z"/>
        <path class="cls-2" d="M224.4,55.42c0,.3-.2.48-.35.68a11.91,11.91,0,0,1-2.88,2.74c-4.09,2.87-8.36,5.46-12.51,8.23-1,.68-1.93,1.52-3,2.15-1.95,1.19-3.7,2.69-5.75,3.72-1,.51-1,.45-1.64-.5-1.1-1.72-1.89-3.61-2.9-5.37-.31-.55-.07-.85.25-1.26a27.7,27.7,0,0,1,7.23-6.15c4.34-2.76,8.6-5.63,13-8.29A8.9,8.9,0,0,1,221.16,50a1,1,0,0,1,1,.54c.77,1.52,1.46,3.07,2.15,4.63C224.33,55.22,224.36,55.33,224.4,55.42Z"/>
        <path class="cls-2" d="M120.63,24A60,60,0,0,1,123,4.34a22,22,0,0,1,1-2.7,4.46,4.46,0,0,1,.81-1.17A1.22,1.22,0,0,1,126.13,0c1.93.35,3.85.71,5.74,1.23.75.2.77.24.56,1a7,7,0,0,1-.25.73,45.2,45.2,0,0,0-3,11.66c-.65,4.23-.36,8.49-.44,12.73a26.72,26.72,0,0,1-.16,4.65,2.38,2.38,0,0,0,.06.88c.14.71.1.77-.61.81-1.4.09-2.81,0-4.21.17-.33,0-.67,0-1,.06-1.31.08-1.34.09-1.68-1.17a15.69,15.69,0,0,1-.54-3.72C120.6,27.1,120.63,25.13,120.63,24Z"/>
        <path class="cls-2" d="M230.77,226.83a1.78,1.78,0,0,1-1.11,1.62c-.87.49-1.76.93-2.64,1.41-.59.31-1.16.65-1.74,1a1.28,1.28,0,0,1-1.69-.28,35.4,35.4,0,0,1-4.27-4.8,81,81,0,0,0-6.94-8.21c-1.23-1.33-2.48-2.64-3.62-4a8.65,8.65,0,0,1-1.19-1.86,1.25,1.25,0,0,1,.19-1.53q2.4-2.46,4.76-5c.37-.39.63-.4,1,0,3.58,4.1,7.82,7.56,11.19,11.85,1.7,2.15,3.28,4.38,4.8,6.66a20.35,20.35,0,0,1,1.15,2.51A2,2,0,0,1,230.77,226.83Z"/>
        <path class="cls-2" d="M2.5,152.11c-1.65,0-1.66,0-1.93-1.52-.2-1.09-.34-2.19-.53-3.28a1.42,1.42,0,0,1,.67-1.6,18.25,18.25,0,0,1,5.78-2.46c2.07-.54,4.16-1,6.23-1.54,2.51-.65,4.94-1.52,7.39-2.38a15.89,15.89,0,0,1,4.55-.82,38.47,38.47,0,0,1,4.3.1,1.38,1.38,0,0,1,1.43,1.11,27.66,27.66,0,0,0,1.43,3.48c.32.72.26.87-.41,1.23a3.69,3.69,0,0,1-.71.3c-1.91.55-3.74,1.41-5.76,1.5a11.46,11.46,0,0,0-4.14,1.14,75.34,75.34,0,0,1-15.29,4.41A12.51,12.51,0,0,1,2.5,152.11Z"/>
        <path class="cls-2" d="M188.1,29.53a5.4,5.4,0,0,1-.94,3,47.07,47.07,0,0,1-4.69,5.75,5.77,5.77,0,0,0-.87,1.26,14.6,14.6,0,0,1-1.93,2.7c-.77.95-1.57,1.86-2.36,2.79a5.65,5.65,0,0,1-1.19,1,1.71,1.71,0,0,1-2.05,0c-1.1-.67-2.27-1.23-3.41-1.84a7.15,7.15,0,0,1-.76-.44,1.54,1.54,0,0,1-.46-2.31c.42-.64.88-1.27,1.35-1.89a10.48,10.48,0,0,0,1.26-2.08,12.91,12.91,0,0,1,2.07-3c1.92-2.2,3.79-4.44,5.84-6.52a8,8,0,0,1,3.21-1.88,1.15,1.15,0,0,1,1.05.08,25.91,25.91,0,0,0,2.53,1.38A1.93,1.93,0,0,1,188.1,29.53Z"/>
        <path class="cls-2" d="M214,106.13c-1,0-1,0-1.28-.85-.76-2.09-1.53-4.17-2.29-6.25-.3-.84-.28-.86.52-1.24a5.85,5.85,0,0,0,1.49-.94,3.75,3.75,0,0,1,1-.66,79.86,79.86,0,0,0,8.81-4.92l3.06-1.79a7.13,7.13,0,0,1,1-.49c1.5-.61,1.56-.57,1.93,1,.49,2.09,1,4.17,1.49,6.26.27,1.14.25,1.37-.71,1.94-4.27,2.5-8.37,5.31-12.91,7.35A4.73,4.73,0,0,1,214,106.13Z"/>
        <path class="cls-2" d="M78.45,24.89a2.76,2.76,0,0,1,1,.47,10.23,10.23,0,0,1,3.42,3.85,59.65,59.65,0,0,0,3.24,5.93,37,37,0,0,1,3,6.17c.35.82.34.83-.4,1.33-1.68,1.15-3.38,2.27-5,3.44-.5.36-.79.28-1.2-.14a31.39,31.39,0,0,1-8-14.32c-.25-.93-.46-1.87-.73-2.79a.8.8,0,0,1,.34-1c1.28-.89,2.53-1.8,3.79-2.71A.87.87,0,0,1,78.45,24.89Z"/>
        <path class="cls-2" d="M103,237.68c-.19,1.11-.43,2.57-.71,4a50,50,0,0,1-3.63,11.24c-.25.57-.42,1.18-.66,1.76-.54,1.27-1.12,1.62-2.43,1.26a17.55,17.55,0,0,1-3.65-1.27c-1-.57-1.33-1-.94-2.28,1.24-4.1,2.88-8.07,3.86-12.25.32-1.36.77-2.69,1.19-4a1.5,1.5,0,0,1,2-1.1l3.8.79C103.05,236.09,103.05,236.11,103,237.68Z"/>
        <path class="cls-3" d="M21.73,95.29a39.19,39.19,0,0,1,9.05.64,6.23,6.23,0,0,1,2.17.79,1.06,1.06,0,0,1,.56,1c0,1,0,2,0,3,0,.8-.09.92-.9,1.13a10.09,10.09,0,0,1-3.42.17,49.69,49.69,0,0,0-5.32,0c-3.22.07-6.44.17-9.65,0-1.54-.07-1.55-.1-1.73-1.63-.1-.85-.19-1.69-.27-2.54-.12-1.2-.09-1.22,1-1.75a11.32,11.32,0,0,1,4.34-.79C19,95.24,20.36,95.29,21.73,95.29Z"/>
        <path class="cls-2" d="M197.88,244.53a1.27,1.27,0,0,1-.5,1,4.19,4.19,0,0,1-1.24.72,29.74,29.74,0,0,0-3.63,1.66c-1,.49-1.43.36-2-.6-.43-.73-.86-1.46-1.25-2.22-1.57-3-3.48-5.93-4.67-9.17-.46-1.24-.41-1.36.79-2a45.82,45.82,0,0,0,4.75-2.63c.85-.53,1-.54,1.49.32a55.16,55.16,0,0,1,5.52,10.23C197.47,242.73,197.64,243.64,197.88,244.53Z"/>
        <path class="cls-2" d="M35.22,180.34c.29,0,.59,0,.88,0a1.24,1.24,0,0,1,1.09.65c.41.78.83,1.56,1.29,2.32a.66.66,0,0,1-.19,1,4,4,0,0,1-.74.49,52.65,52.65,0,0,0-6.65,4.18A29.26,29.26,0,0,1,22.7,193a9.89,9.89,0,0,0-1.08.54,1.33,1.33,0,0,1-2-.56c-.42-.61-.77-1.27-1.2-1.86a1.28,1.28,0,0,1,.06-1.61A8,8,0,0,1,21.09,187c2.07-1.35,4.11-2.78,6.23-4A16.08,16.08,0,0,1,34,180.44l1.22-.06Z"/>
        <path class="cls-2" d="M236,184.75a2.84,2.84,0,0,1-1.9-.79,45.82,45.82,0,0,0-6.9-5c-1-.6-1.14-1.16-.5-2.08.9-1.32,1.42-2.84,2.33-4.15a2.24,2.24,0,0,1,2.77-.82,26.25,26.25,0,0,1,8.53,6.43,2.4,2.4,0,0,1,.25.37c.59.92.62.94-.12,1.8-1.1,1.29-2.26,2.54-3.37,3.83A1.27,1.27,0,0,1,236,184.75Z"/>
      </g>
    </g>
  </g>
</svg>
